PathFileType  4	(X/Y/Z) C:\Users\wagnerel85475\Documents\Thesis\opencap-core\Data\3375ffbc-daeb-4a43-b4f7-ac9899cd4c71\MarkerData\PreAugmentation
DataRate	CameraRate	NumFrames	NumMarkers	Units	OrigDataRate	OrigDataStartFrame	OrigNumFrames
60.0	60.0	6	20	m	60.0	247	282
Frame#	Time	Neck			RShoulder			RElbow			RWrist			LShoulder			LElbow			LWrist			midHip			RHip			RKnee			RAnkle			LHip			LKnee			LAnkle			LBigToe			LSmallToe			LHeel			RBigToe			RSmallToe			RHeel			
		X1	Y1	Z1	X2	Y2	Z2	X3	Y3	Z3	X4	Y4	Z4	X5	Y5	Z5	X6	Y6	Z6	X7	Y7	Z7	X8	Y8	Z8	X9	Y9	Z9	X10	Y10	Z10	X11	Y11	Z11	X12	Y12	Z12	X13	Y13	Z13	X14	Y14	Z14	X15	Y15	Z15	X16	Y16	Z16	X17	Y17	Z17	X18	Y18	Z18	X19	Y19	Z19	X20	Y20	Z20	

247	4.1000000	0.7891100	1.3668600	-0.1807100	0.7940100	1.3736400	0.0114400	0.7101300	1.0714400	0.0865100	0.7931900	0.7957000	0.1582900	0.7942600	1.3604200	-0.3771900	0.7702300	1.0675800	-0.4414800	0.8698100	0.7776100	-0.4692400	0.8194800	0.8252300	-0.1627600	0.8204400	0.8317900	-0.0471300	0.7664300	0.3482900	-0.0316800	0.6877700	-0.1809700	0.0024800	0.8337900	0.8248600	-0.2743000	0.7562500	0.3528800	-0.2797600	0.6867500	-0.1778300	-0.3159800	0.9021700	-0.2212800	-0.3451200	0.8369800	-0.2238600	-0.3869000	0.6400700	-0.2235900	-0.3128300	0.8917500	-0.2355500	0.0466300	0.8441000	-0.2280600	0.0822600	0.6276300	-0.2306700	-0.0166500
248	4.1166667	0.7893200	1.3669800	-0.1808200	0.7940000	1.3736300	0.0113600	0.7100500	1.0714800	0.0865700	0.7931000	0.7985600	0.1581200	0.7943200	1.3604700	-0.3771800	0.7702200	1.0673200	-0.4415300	0.8695200	0.7775800	-0.4689800	0.8191500	0.8250100	-0.1628100	0.8202200	0.8277800	-0.0474500	0.7665100	0.3485800	-0.0318400	0.6877800	-0.1808300	0.0024200	0.8255300	0.8237400	-0.2706300	0.7481200	0.3508700	-0.2762900	0.6867800	-0.1782400	-0.3159600	0.9019700	-0.2216200	-0.3450700	0.8370100	-0.2238800	-0.3869100	0.6397300	-0.2236900	-0.3128800	0.8918800	-0.2354600	0.0465300	0.8443200	-0.2280700	0.0824200	0.6278100	-0.2305800	-0.0167400
249	4.1333333	0.7891800	1.3668600	-0.1807400	0.7940100	1.3736400	0.0114100	0.7101700	1.0714700	0.0864900	0.7930900	0.7986900	0.1581000	0.7943700	1.3604000	-0.3771700	0.7612600	1.0670700	-0.4379400	0.8696800	0.7775100	-0.4691600	0.8275600	0.8260900	-0.1667000	0.8205600	0.8277300	-0.0473500	0.7664200	0.3483900	-0.0316900	0.6877500	-0.1809500	0.0024900	0.8338000	0.8247200	-0.2743300	0.7562700	0.3528600	-0.2797600	0.6867600	-0.1778300	-0.3159700	0.9021700	-0.2212800	-0.3451200	0.8369800	-0.2238300	-0.3869000	0.6400700	-0.2235900	-0.3128300	0.8917700	-0.2355400	0.0466300	0.8441300	-0.2280500	0.0822600	0.6276100	-0.2306600	-0.0166300
250	4.1500000	0.7893700	1.3669700	-0.1808300	0.7940600	1.3736300	0.0113700	0.7100400	1.0715300	0.0865300	0.7931000	0.7914700	0.1580900	0.7943700	1.3604800	-0.3771800	0.7613700	1.0700000	-0.4379700	0.8694500	0.7774700	-0.4689400	0.8272900	0.8259900	-0.1668000	0.8202100	0.8277900	-0.0474900	0.7665100	0.3486400	-0.0318200	0.6877500	-0.1807600	0.0024300	0.8336600	0.8276400	-0.2747500	0.7473200	0.3537300	-0.2766300	0.6869300	-0.1746200	-0.3153900	0.9019500	-0.2251100	-0.3457400	0.8372200	-0.2271000	-0.3875800	0.6397600	-0.2236300	-0.3128800	0.8919000	-0.2354800	0.0465600	0.8443300	-0.2280700	0.0824400	0.6278000	-0.2305400	-0.0167600
251	4.1666667	0.7888700	1.3707000	-0.1808000	0.7940300	1.3736700	0.0114300	0.7101500	1.0715100	0.0864800	0.7930200	0.7955600	0.1582500	0.7943500	1.3604200	-0.3771800	0.7612500	1.0701700	-0.4379600	0.8696300	0.7774600	-0.4691600	0.8275200	0.8261400	-0.1667600	0.8119200	0.8268300	-0.0506800	0.7663900	0.3484100	-0.0316600	0.6877200	-0.1809100	0.0024900	0.8334600	0.8276300	-0.2745800	0.7478600	0.3510200	-0.2761400	0.6868100	-0.1778300	-0.3159700	0.9021500	-0.2247400	-0.3457700	0.8369800	-0.2239000	-0.3869300	0.6401100	-0.2235800	-0.3128400	0.8917800	-0.2355700	0.0466600	0.8441300	-0.2280600	0.0822700	0.6276200	-0.2306300	-0.0166500
252	4.1833333	0.7893300	1.3669800	-0.1808400	0.7940700	1.3736500	0.0113700	0.7099800	1.0714700	0.0865400	0.7930000	0.7954000	0.1582800	0.7943600	1.3604800	-0.3771900	0.7613200	1.0699700	-0.4379600	0.8610000	0.7762400	-0.4655700	0.8272400	0.8259200	-0.1668000	0.8116200	0.8268300	-0.0508100	0.7585000	0.3467100	-0.0277200	0.6877400	-0.1807600	0.0024200	0.8336200	0.8275500	-0.2747500	0.7480500	0.3509000	-0.2763000	0.6867000	-0.1748000	-0.3165900	0.9019500	-0.2250900	-0.3457300	0.8369700	-0.2239300	-0.3869500	0.6397900	-0.2236000	-0.3128700	0.8918800	-0.2355100	0.0465600	0.8443100	-0.2280800	0.0824400	0.6278200	-0.2305300	-0.0167600
